<?xml version="1.0" standalone="no"?>
<!DOCTYPE svg PUBLIC "-//W3C//DTD SVG 20010904//EN"
 "http://www.w3.org/TR/2001/REC-SVG-20010904/DTD/svg10.dtd">
<svg version="1.0" xmlns="http://www.w3.org/2000/svg"
 width="225.000000pt" height="225.000000pt" viewBox="0 0 225.000000 225.000000"
 preserveAspectRatio="xMidYMid meet">
<metadata>
Created by potrace 1.15, written by Peter Selinger 2001-2017
</metadata>
<g transform="translate(0.000000,225.000000) scale(0.100000,-0.100000)"
fill="#000000" stroke="none">
<path d="M1010 2164 c-14 -2 -52 -9 -85 -15 -226 -39 -466 -182 -617 -368 -78
-97 -156 -247 -195 -376 -26 -84 -27 -102 -27 -280 0 -178 2 -196 27 -280 59
-193 142 -332 281 -471 143 -141 295 -225 504 -276 68 -16 117 -21 227 -20
156 0 264 22 407 82 222 92 438 302 539 525 127 280 125 606 -5 881 -59 125
-115 204 -210 299 -193 191 -426 292 -696 300 -69 2 -136 2 -150 -1z m265
-169 c225 -39 445 -181 575 -370 51 -74 108 -205 131 -301 27 -112 29 -288 5
-388 -63 -266 -244 -494 -486 -616 -130 -65 -120 -70 -120 62 0 122 -15 174
-60 216 l-22 21 38 6 c157 26 245 67 318 146 60 65 90 134 107 249 19 123 2
218 -56 316 -27 45 -29 56 -29 164 -1 145 -10 164 -69 155 -23 -3 -86 -27
-139 -54 l-96 -49 -59 14 c-75 18 -289 18 -373 0 l-65 -14 -65 39 c-68 40
-178 76 -203 66 -30 -11 -50 -182 -28 -240 8 -20 3 -33 -24 -72 -51 -71 -69
-135 -68 -240 1 -204 76 -345 220 -419 48 -24 126 -47 207 -61 l38 -6 -25 -27
c-44 -48 -51 -72 -55 -200 -5 -139 4 -132 -99 -86 -184 81 -353 244 -444 429
-63 128 -80 200 -86 360 -6 171 14 271 82 412 105 216 287 377 513 453 154 52
282 62 437 35z"/>
</g>
</svg>
